<svg width="210" height="63" viewBox="0 0 210 63" fill="none" xmlns="http://www.w3.org/2000/svg">
<path d="M0.5 21.4113H11.9966L22.3176 53.8544L31.8179 21.4113H43.5779V23.4954H40.7076C39.6961 23.4954 39.0129 23.6725 38.6655 24.0222C38.3144 24.3763 38.1388 24.9848 38.1388 25.8566V58.3815C38.1388 59.0308 38.3487 59.5303 38.7686 59.8799C39.1884 60.2341 39.9137 60.4067 40.9404 60.4067H43.5779V62.4908H27.772V60.4067H30.7263C31.5698 60.4067 32.1958 60.2159 32.6042 59.8391C33.0088 59.4576 33.2149 58.9718 33.2149 58.3815V23.4954L21.7947 62.4954H20.2221L7.92394 23.6634V53.523C7.92394 55.3029 8.11097 56.6288 8.48503 57.5097C8.85909 58.3906 9.39346 59.0671 10.0843 59.5394C10.7752 60.0116 11.9241 60.3022 13.5272 60.4157V62.4999H0.5V60.4157C2.63367 60.2477 4.08028 59.7028 4.84367 58.7765C5.60706 57.8502 5.98875 56.2111 5.98875 53.859V25.5251C5.98875 24.8213 5.80936 24.3082 5.45056 23.9813C5.09177 23.6589 4.42381 23.4954 3.44286 23.4954H0.5V21.4113Z" fill="white"/>
<path d="M58.5701 21.4113H74.4944V23.4954H71.7615C70.5477 23.4954 69.7805 23.6771 69.4598 24.0358C69.1392 24.399 68.9827 25.1619 68.9827 26.3288V57.437C68.9827 58.6766 69.124 59.4576 69.4026 59.771C69.7767 60.1978 70.4523 60.4112 71.4332 60.4112H74.4906V62.4954H58.5663V60.4112H61.5779C62.6352 60.4112 63.3222 60.225 63.6314 59.8572C63.9444 59.4849 64.0971 58.6812 64.0971 57.4416V26.3288C64.0971 25.1437 63.9558 24.4127 63.6772 24.1357C63.2421 23.7089 62.4405 23.4954 61.2725 23.4954H58.5625V21.4113H58.5701Z" fill="white"/>
<path d="M104.936 20.5532H106.501L118.883 58.1364C119.379 59.653 120.402 60.4159 121.94 60.4159H123.013V62.5H109.237V60.4159H110.337C111.768 60.4159 112.78 60.2297 113.371 59.8619C113.776 59.6031 113.978 59.2035 113.978 58.6677C113.978 58.3544 113.925 58.0184 113.814 57.6688L110.959 48.9461H97.298L95.6949 53.9454C95.2751 55.2803 95.0651 56.3338 95.0651 57.1102C95.0651 58.0184 95.4201 58.7948 96.1262 59.4442C96.8362 60.0935 97.8668 60.4159 99.2218 60.4159H100.39V62.5H87.874V60.4159C89.2138 60.4159 90.2711 60.0708 91.0497 59.376C91.8284 58.6813 92.5421 57.36 93.1986 55.4166L104.936 20.5532ZM104.252 28.4676L98.0538 46.7711H110.249L104.252 28.4676Z" fill="url(#paint0_linear_9_178)"/>
<path d="M135.505 21.4113H147.001L157.322 53.8544L166.823 21.4113H178.583V23.4954H175.709C174.697 23.4954 174.018 23.6725 173.667 24.0222C173.315 24.3763 173.14 24.9848 173.14 25.8566V58.3815C173.14 59.0308 173.35 59.5303 173.77 59.8799C174.19 60.2341 174.915 60.4067 175.941 60.4067H178.579V62.4908H162.773V60.4067H165.727C166.571 60.4067 167.197 60.2159 167.605 59.8391C168.01 59.4576 168.216 58.9718 168.216 58.3815V23.4954L156.796 62.4954H155.223L142.929 23.6634V53.523C142.929 55.3029 143.116 56.6288 143.49 57.5097C143.864 58.3906 144.398 59.0672 145.089 59.5394C145.78 60.0116 146.929 60.3022 148.532 60.4157V62.4999H135.505V60.4157C137.639 60.2477 139.085 59.7028 139.849 58.7765C140.612 57.8502 140.994 56.2111 140.994 53.859V25.5251C140.994 24.8213 140.814 24.3082 140.455 23.9813C140.097 23.6589 139.429 23.4954 138.448 23.4954H135.505V21.4113Z" fill="white"/>
<path d="M193.575 21.4113H209.499V23.4954H206.766C205.553 23.4954 204.785 23.6771 204.465 24.0358C204.144 24.399 203.988 25.1619 203.988 26.3288V57.437C203.988 58.6766 204.129 59.4576 204.407 59.771C204.782 60.1978 205.457 60.4112 206.438 60.4112H209.495V62.4954H193.571V60.4112H196.583C197.64 60.4112 198.327 60.225 198.636 59.8572C198.949 59.4849 199.102 58.6812 199.102 57.4416V26.3288C199.102 25.1437 198.961 24.4127 198.682 24.1357C198.247 23.7089 197.445 23.4954 196.277 23.4954H193.567V21.4113H193.575Z" fill="white"/>
<path d="M91.1942 0.5H98.4426V1.55798H97.9311C97.1716 1.55798 96.6868 1.61247 96.4769 1.72598C96.2669 1.8395 96.1639 2.01659 96.1639 2.26178C96.1639 2.42979 96.2364 2.70223 96.3853 3.06549L96.4731 3.33339L100.889 16.6058L104.767 4.34596C104.317 2.95197 103.97 2.13919 103.729 1.90307C103.489 1.66696 103.015 1.5489 102.302 1.5489H100.985V0.5H110.035V1.55798H109.096C108.275 1.55798 107.741 1.62155 107.496 1.74869C107.252 1.87583 107.13 2.06654 107.13 2.32081C107.13 2.5206 107.16 2.70223 107.218 2.87024L111.71 16.6103L115.409 4.72284C115.554 4.25969 115.63 3.81924 115.63 3.39241C115.63 2.76126 115.481 2.29811 115.184 1.99843C114.886 1.70328 114.439 1.55344 113.844 1.55344H113.172V0.5H119.978V1.55798C119.382 1.63517 118.905 1.77139 118.554 1.97572C118.203 2.18005 117.898 2.46612 117.638 2.84299C117.378 3.21987 117.115 3.84648 116.852 4.72284L111.504 21.8957H110.458L105.466 6.53911L100.706 21.9048H99.6068L93.4959 3.34247C93.2516 2.61596 92.9729 2.13919 92.6676 1.90761C92.3584 1.67604 91.866 1.56252 91.1904 1.56252V0.5H91.1942Z" fill="white"/>
<defs>
<linearGradient id="paint0_linear_9_178" x1="105.444" y1="20.5511" x2="105.444" y2="62.4941" gradientUnits="userSpaceOnUse">
<stop stop-color="#FF8B03"/>
<stop offset="1" stop-color="#37251C"/>
</linearGradient>
</defs>
</svg>
